<?xml version="1.0" encoding="UTF-8" standalone="no"?>
<svg
   xmlns:dc="http://purl.org/dc/elements/1.1/"
   xmlns:cc="http://creativecommons.org/ns#"
   xmlns:rdf="http://www.w3.org/1999/02/22-rdf-syntax-ns#"
   xmlns:svg="http://www.w3.org/2000/svg"
   xmlns="http://www.w3.org/2000/svg"
   xmlns:sodipodi="http://sodipodi.sourceforge.net/DTD/sodipodi-0.dtd"
   xmlns:inkscape="http://www.inkscape.org/namespaces/inkscape"
   version="1.0"
   width="1029.9998pt"
   height="1029.9998pt"
   viewBox="0 0 1029.9998 1029.9998"
   preserveAspectRatio="xMidYMid meet"
   id="svg72"
   sodipodi:docname="logo-inkscape.svg"
   inkscape:version="0.92.4 (5da689c313, 2019-01-14)">
  <defs
     id="defs76" />
  <sodipodi:namedview
     pagecolor="#ffffff"
     bordercolor="#666666"
     borderopacity="1"
     objecttolerance="10"
     gridtolerance="10"
     guidetolerance="10"
     inkscape:pageopacity="0"
     inkscape:pageshadow="2"
     inkscape:window-width="1296"
     inkscape:window-height="704"
     id="namedview74"
     showgrid="false"
     inkscape:zoom="0.32614436"
     inkscape:cx="640.25947"
     inkscape:cy="722.24828"
     inkscape:window-x="70"
     inkscape:window-y="27"
     inkscape:window-maximized="1"
     inkscape:current-layer="layer1" />
  <metadata
     id="metadata2">
Created by potrace 1.16, written by Peter Selinger 2001-2019
<rdf:RDF>
  <cc:Work
     rdf:about="">
    <dc:format>image/svg+xml</dc:format>
    <dc:type
       rdf:resource="http://purl.org/dc/dcmitype/StillImage" />
  </cc:Work>
</rdf:RDF>
</metadata>
  <g
     inkscape:groupmode="layer"
     id="layer1"
     inkscape:label="bg">
    <rect
       style="fill:#ffffff;fill-opacity:1;fill-rule:nonzero;stroke:none;stroke-width:112.50000763;stroke-miterlimit:4;stroke-dasharray:none;stroke-opacity:1"
       id="rect4049"
       width="1000.3239"
       height="1009.5223"
       x="16.097168"
       y="8.9795094" />
  </g>
  <g
     inkscape:groupmode="layer"
     id="layer2"
     inkscape:label="Layer 1"
     style="display:inline">
    <g
       transform="matrix(0.00838762,0,0,-0.00838762,0,1029.9998)"
       id="g70"
       style="fill:#000000;stroke:none">
      <path
         d="M 0,61400 V 0 h 61400 61400 v 61400 61400 H 61400 0 Z m 118110,0 V 4690 H 61400 4690 v 56710 56710 h 56710 56710 z"
         id="path4"
         inkscape:connector-curvature="0" />
      <path
         d="m 75401,109210 c -816,-42 -1565,-187 -2316,-447 -716,-248 -1476,-639 -2120,-1092 -959,-674 -1805,-1572 -2441,-2593 -704,-1130 -1155,-2334 -1338,-3573 -192,-1300 -114,-2642 226,-3885 259,-946 723,-1958 1283,-2795 349,-523 668,-909 1134,-1376 449,-449 818,-754 1311,-1084 1037,-695 2173,-1153 3322,-1340 431,-70 722,-94 1198,-102 737,-11 1346,52 2020,209 965,224 1960,668 2840,1266 742,504 1438,1150 1992,1847 1055,1330 1752,2980 1962,4645 195,1543 15,3099 -519,4495 -702,1832 -1951,3405 -3520,4430 -1178,770 -2446,1227 -3775,1359 -377,38 -924,53 -1259,36 z m 824,-3710 c 1095,-100 2100,-587 2935,-1420 649,-647 1162,-1559 1404,-2491 225,-872 247,-1853 60,-2729 -209,-979 -691,-1907 -1363,-2626 -591,-631 -1353,-1111 -2146,-1352 -760,-232 -1642,-250 -2435,-51 -461,115 -908,311 -1355,592 -917,578 -1650,1483 -2078,2567 -263,667 -387,1339 -387,2103 0,936 188,1755 590,2572 440,896 1071,1610 1875,2121 680,433 1384,667 2175,724 147,10 567,5 725,-10 z"
         id="path6"
         inkscape:connector-curvature="0" />
      <path
         d="m 6094,108953 c 4,-10 1677,-3994 3720,-8853 l 3714,-8835 h 2088 2089 l 3732,8850 3732,8850 -2057,3 c -1131,1 -2059,-1 -2063,-5 -4,-5 -1223,-2978 -2709,-6608 -1486,-3630 -2705,-6603 -2709,-6607 -3,-4 -1224,2968 -2713,6605 l -2707,6612 -2061,3 c -1960,2 -2061,1 -2056,-15 z"
         id="path8"
         inkscape:connector-curvature="0" />
      <path
         d="m 26880,107370 v -1600 h 660 660 v -5670 -5670 h -660 -660 v -1585 -1585 h 3225 3225 v 1585 1585 h -665 -665 v 5670 5670 l 663,2 662,3 3,1598 2,1597 h -3225 -3225 z"
         id="path10"
         inkscape:connector-curvature="0" />
      <path
         d="m 35650,100115 v -8855 h 1900 1900 v 2838 l 1,2837 761,773 c 605,614 764,771 772,760 6,-8 1417,-1633 3135,-3611 l 3124,-3597 h 2335 c 2223,0 2334,1 2320,18 -13,14 -2122,2390 -7935,8934 l -592,667 3476,3498 c 1911,1924 3721,3744 4022,4046 l 546,547 h -2425 -2425 l -3555,-3581 -3555,-3580 -3,3580 -2,3581 h -1900 -1900 z"
         id="path12"
         inkscape:connector-curvature="0" />
      <path
         d="m 52862,107248 3,-1723 2263,-3 2262,-2 v -7130 -7130 h 1885 1885 v 7130 7130 h 2260 2260 v 1725 1725 h -6410 -6410 z"
         id="path14"
         inkscape:connector-curvature="0" />
      <path
         d="m 86550,100115 v -8855 h 1900 1900 v 3570 3570 h 848 849 l 2714,-3547 c 1493,-1951 2723,-3557 2734,-3570 l 20,-23 2207,2 2207,3 -2930,3754 c -1612,2064 -2929,3754 -2927,3755 2,2 100,50 219,108 551,269 998,582 1423,998 587,574 1008,1247 1285,2054 283,822 360,1749 220,2641 -244,1549 -1166,2922 -2484,3699 -677,399 -1375,620 -2170,686 -77,6 -1530,10 -4067,10 h -3948 z m 7535,5373 c 387,-92 719,-298 975,-606 305,-364 446,-784 426,-1263 -21,-513 -203,-921 -567,-1274 -118,-115 -192,-173 -311,-247 -212,-132 -439,-210 -690,-237 -65,-7 -669,-11 -1833,-11 h -1735 v 1835 1835 l 1813,-3 1812,-3 z"
         id="path16"
         inkscape:connector-curvature="0" />
      <path
         d="m 44820,77959 c -1492,-72 -2890,-566 -4022,-1420 -289,-219 -633,-542 -863,-812 -690,-810 -1157,-1833 -1284,-2817 -33,-250 -41,-379 -41,-655 0,-431 47,-805 146,-1175 172,-642 501,-1283 917,-1790 113,-137 421,-438 567,-554 291,-231 757,-515 1215,-741 434,-213 821,-365 1415,-553 623,-198 1043,-309 1760,-467 790,-174 1598,-400 2100,-587 593,-221 941,-577 1047,-1072 24,-111 24,-349 0,-466 -28,-136 -63,-236 -132,-375 -230,-471 -707,-840 -1393,-1079 -522,-181 -1148,-243 -1822,-180 -427,40 -768,127 -1115,287 -513,236 -888,528 -1177,915 -200,269 -377,697 -378,916 0,49 -2,57 -16,52 -28,-11 -3459,-1606 -3473,-1615 -12,-8 -12,-16 4,-58 189,-509 427,-953 723,-1348 237,-316 625,-724 927,-974 320,-265 694,-534 975,-701 931,-551 2071,-891 3340,-997 268,-22 938,-25 1195,-5 1215,94 2269,378 3220,866 1354,695 2420,1805 2899,3018 169,429 267,860 307,1353 15,188 6,725 -16,910 -45,385 -111,685 -221,1007 -312,912 -911,1651 -1788,2208 -619,393 -1218,592 -3736,1245 -1116,289 -1217,317 -1605,448 -592,200 -1025,398 -1382,633 -460,304 -663,570 -702,924 -19,169 16,494 74,695 164,568 587,1029 1186,1294 360,158 746,241 1269,272 776,46 1490,-109 2096,-457 442,-253 862,-620 1193,-1042 50,-63 77,-90 85,-84 6,5 641,440 1411,967 770,526 1405,962 1412,969 8,8 -8,41 -65,132 -366,576 -802,1038 -1422,1504 -959,723 -2092,1176 -3365,1345 -488,65 -992,87 -1465,64 z"
         id="path18"
         inkscape:connector-curvature="0" />
      <path
         d="m 76021,77960 c -816,-42 -1565,-187 -2316,-447 -716,-248 -1476,-639 -2120,-1092 -959,-674 -1805,-1572 -2441,-2593 -704,-1130 -1155,-2334 -1338,-3573 -192,-1300 -114,-2642 226,-3885 259,-946 723,-1958 1283,-2795 349,-523 668,-909 1134,-1376 449,-449 818,-754 1311,-1084 1037,-695 2173,-1153 3322,-1340 431,-70 722,-94 1198,-102 737,-11 1346,52 2020,209 965,224 1960,668 2840,1266 742,504 1438,1150 1992,1847 1055,1330 1752,2980 1962,4645 195,1543 15,3099 -519,4495 -702,1832 -1951,3405 -3520,4430 -1178,770 -2446,1227 -3775,1359 -377,38 -924,53 -1259,36 z m 824,-3710 c 1095,-100 2100,-587 2935,-1420 649,-647 1162,-1559 1404,-2491 225,-872 247,-1853 60,-2729 -209,-979 -691,-1907 -1363,-2626 -591,-631 -1353,-1111 -2146,-1352 -760,-232 -1642,-250 -2435,-51 -461,115 -908,311 -1355,592 -917,578 -1650,1483 -2078,2567 -263,667 -387,1339 -387,2103 0,936 188,1755 590,2572 440,896 1071,1610 1875,2121 680,433 1384,667 2175,724 147,10 567,5 725,-10 z"
         id="path20"
         inkscape:connector-curvature="0" />
      <path
         d="m 107121,77960 c -816,-42 -1565,-187 -2316,-447 -716,-248 -1476,-639 -2120,-1092 -959,-674 -1805,-1572 -2441,-2593 -704,-1130 -1155,-2334 -1338,-3573 -192,-1300 -114,-2642 226,-3885 259,-946 723,-1958 1283,-2795 349,-523 668,-909 1134,-1376 449,-449 818,-754 1311,-1084 1037,-695 2173,-1153 3322,-1340 431,-70 722,-94 1198,-102 737,-11 1346,52 2020,209 965,224 1960,668 2840,1266 742,504 1438,1150 1992,1847 1055,1330 1752,2980 1962,4645 195,1543 15,3099 -519,4495 -702,1832 -1951,3405 -3520,4430 -1178,770 -2446,1227 -3775,1359 -377,38 -924,53 -1259,36 z m 824,-3710 c 1095,-100 2100,-587 2935,-1420 649,-647 1162,-1559 1404,-2491 225,-872 247,-1853 60,-2729 -209,-979 -691,-1907 -1363,-2626 -591,-631 -1353,-1111 -2146,-1352 -760,-232 -1642,-250 -2435,-51 -461,115 -908,311 -1355,592 -917,578 -1650,1483 -2078,2567 -263,667 -387,1339 -387,2103 0,936 188,1755 590,2572 440,896 1071,1610 1875,2121 680,433 1384,667 2175,724 147,10 567,5 725,-10 z"
         id="path22"
         inkscape:connector-curvature="0" />
      <path
         d="m 6730,68865 v -8855 h 1885 1885 v 5781 c 0,3179 3,5778 8,5775 4,-2 1917,-2603 4252,-5780 l 4245,-5775 1803,-1 h 1802 v 8855 8855 h -1890 -1890 l -2,-5814 -3,-5814 -4270,5814 -4270,5813 H 8508 l -1778,1 z"
         id="path24"
         inkscape:connector-curvature="0" />
      <path
         d="m 24990,68865 v -8855 h 5535 5535 v 1710 1710 h -3635 -3635 v 2095 2095 h 3195 3195 v 1725 1725 h -3195 -3195 v 1600 1600 l 3633,2 3632,3 3,1723 2,1722 h -5535 -5535 z"
         id="path26"
         inkscape:connector-curvature="0" />
      <path
         d="m 53850,68865 v -8855 h 1885 1885 v 3570 3570 h 2009 c 2264,0 2283,1 2721,76 562,96 1136,311 1645,616 758,454 1381,1094 1836,1888 369,644 602,1345 683,2060 52,452 48,967 -9,1399 -186,1412 -951,2725 -2067,3549 -682,505 -1445,821 -2258,937 -317,46 -213,45 -4387,45 h -3943 z m 7505,5373 c 225,-54 405,-132 592,-257 412,-276 703,-694 792,-1139 41,-201 51,-395 31,-593 -44,-426 -206,-778 -500,-1083 -175,-181 -332,-298 -533,-396 -187,-91 -341,-135 -552,-160 -58,-6 -702,-10 -1827,-10 h -1738 v 1835 1835 l 1813,-3 1812,-3 z"
         id="path28"
         inkscape:connector-curvature="0" />
      <path
         d="m 87180,68865 v -8855 h 5535 5535 v 1710 1710 h -3635 -3635 v 7145 7145 h -1900 -1900 z"
         id="path30"
         inkscape:connector-curvature="0" />
      <path
         d="m 70251,46710 c -816,-42 -1565,-187 -2316,-447 -716,-248 -1476,-639 -2120,-1092 -959,-674 -1805,-1572 -2441,-2593 -704,-1130 -1155,-2334 -1338,-3573 -192,-1300 -114,-2642 226,-3885 259,-946 723,-1958 1283,-2795 349,-523 668,-909 1134,-1376 449,-449 818,-754 1311,-1084 1037,-695 2173,-1153 3322,-1340 431,-70 722,-94 1198,-102 737,-11 1346,52 2020,209 965,224 1960,668 2840,1266 742,504 1438,1150 1992,1847 1055,1330 1752,2980 1962,4645 195,1543 15,3099 -519,4495 -702,1832 -1951,3405 -3520,4430 -1178,770 -2446,1227 -3775,1359 -377,38 -924,53 -1259,36 z m 824,-3710 c 1095,-100 2100,-587 2935,-1420 649,-647 1162,-1559 1404,-2491 225,-872 247,-1853 60,-2729 -209,-979 -691,-1907 -1363,-2626 -591,-631 -1353,-1111 -2146,-1352 -760,-232 -1642,-250 -2435,-51 -461,115 -908,311 -1355,592 -917,578 -1650,1483 -2078,2567 -263,667 -387,1339 -387,2103 0,936 188,1755 590,2572 440,896 1071,1610 1875,2121 680,433 1384,667 2175,724 147,10 567,5 725,-10 z"
         id="path32"
         inkscape:connector-curvature="0" />
      <path
         d="m 102101,46710 c -816,-42 -1565,-187 -2316,-447 -716,-248 -1476,-639 -2120,-1092 -959,-674 -1805,-1572 -2441,-2593 -704,-1130 -1155,-2334 -1338,-3573 -192,-1300 -114,-2642 226,-3885 259,-946 723,-1958 1283,-2795 349,-523 668,-909 1134,-1376 449,-449 818,-754 1311,-1084 1037,-695 2173,-1153 3322,-1340 431,-70 722,-94 1198,-102 737,-11 1346,52 2020,209 965,224 1960,668 2840,1266 742,504 1438,1150 1992,1847 1055,1330 1752,2980 1962,4645 195,1543 15,3099 -519,4495 -702,1832 -1951,3405 -3520,4430 -1178,770 -2446,1227 -3775,1359 -377,38 -924,53 -1259,36 z m 824,-3710 c 1095,-100 2100,-587 2935,-1420 649,-647 1162,-1559 1404,-2491 225,-872 247,-1853 60,-2729 -209,-979 -691,-1907 -1363,-2626 -591,-631 -1353,-1111 -2146,-1352 -760,-232 -1642,-250 -2435,-51 -461,115 -908,311 -1355,592 -917,578 -1650,1483 -2078,2567 -263,667 -387,1339 -387,2103 0,936 188,1755 590,2572 440,896 1071,1610 1875,2121 680,433 1384,667 2175,724 147,10 567,5 725,-10 z"
         id="path34"
         inkscape:connector-curvature="0" />
      <path
         d="m 6730,37615 v -8855 h 1885 1885 v 3570 3570 h 2009 c 2264,0 2283,1 2721,76 562,96 1136,311 1645,616 758,454 1381,1094 1836,1888 369,644 602,1345 683,2060 52,452 48,967 -9,1399 -186,1412 -951,2725 -2067,3549 -682,505 -1445,821 -2258,937 -317,46 -213,45 -4387,45 H 6730 Z m 7505,5373 c 225,-54 405,-132 592,-257 412,-276 703,-694 792,-1139 41,-201 51,-395 31,-593 -44,-426 -206,-778 -500,-1083 -175,-181 -332,-298 -533,-396 -187,-91 -341,-135 -552,-160 -58,-6 -702,-10 -1827,-10 h -1738 v 1835 1835 l 1813,-3 1812,-3 z"
         id="path36"
         inkscape:connector-curvature="0" />
      <path
         d="m 20940,37615 v -8855 h 5535 5535 v 1710 1710 h -3635 -3635 v 2095 2095 h 3195 3195 v 1725 1725 h -3195 -3195 v 1600 1600 l 3633,2 3632,3 3,1723 2,1722 h -5535 -5535 z"
         id="path38"
         inkscape:connector-curvature="0" />
      <path
         d="m 34400,44870 v -1600 h 660 660 v -5670 -5670 h -660 -660 v -1585 -1585 h 3225 3225 v 1585 1585 h -665 -665 v 5670 5670 l 663,2 662,3 3,1598 2,1597 h -3225 -3225 z"
         id="path40"
         inkscape:connector-curvature="0" />
      <path
         d="m 44164,45943 c 2106,-3141 5109,-7630 5109,-7638 0,-6 -1436,-2154 -3191,-4773 -1756,-2620 -3192,-4765 -3192,-4768 0,-2 1027,-4 2283,-4 h 2284 l 2048,3060 2048,3059 91,-133 c 50,-73 978,-1450 2061,-3060 l 1970,-2926 h 2273 c 1816,0 2272,3 2266,13 -4,6 -1176,1763 -2604,3902 -1428,2140 -2858,4282 -3177,4760 l -580,870 2733,4080 2733,4080 -2282,3 c -1817,2 -2284,-1 -2293,-10 -7,-7 -725,-1077 -1597,-2377 -871,-1301 -1588,-2366 -1593,-2367 -5,-2 -725,1067 -1600,2374 l -1592,2377 -2276,3 -2276,2 z"
         id="path42"
         inkscape:connector-curvature="0" />
      <path
         d="m 79562,44748 3,-1723 2263,-3 2262,-2 v -7130 -7130 h 1885 1885 v 7130 7130 h 2260 2260 v 1725 1725 h -6410 -6410 z"
         id="path44"
         inkscape:connector-curvature="0" />
      <path
         d="m 42545,19153 c -435,-19 -839,-168 -1203,-443 -499,-375 -827,-963 -893,-1600 -25,-243 2,-577 67,-825 76,-292 237,-611 428,-849 93,-114 285,-302 396,-386 562,-427 1278,-550 1930,-334 569,189 1042,606 1314,1158 389,788 287,1728 -263,2436 -307,396 -764,688 -1243,794 -160,35 -382,56 -533,49 z m 372,-652 c 441,-91 830,-396 1043,-821 125,-249 175,-445 187,-725 15,-389 -82,-739 -292,-1055 -226,-339 -564,-569 -953,-647 -132,-27 -432,-24 -569,5 -183,40 -357,115 -528,230 -322,216 -578,611 -665,1024 -203,957 412,1894 1316,2008 111,14 346,4 461,-19 z"
         id="path46"
         inkscape:connector-curvature="0" />
      <path
         d="m 6645,19063 c 4,-16 301,-1008 661,-2205 360,-1198 654,-2180 654,-2183 0,-3 145,-5 323,-5 h 323 l 412,1378 c 353,1177 420,1412 463,1617 28,132 52,241 53,242 1,2 25,-106 54,-240 44,-206 113,-449 464,-1619 l 412,-1378 h 318 317 l 23,73 c 12,39 310,1033 663,2207 l 642,2135 -361,3 c -198,1 -363,-1 -366,-5 -4,-5 -207,-752 -451,-1660 -244,-909 -446,-1653 -449,-1653 -3,0 -232,747 -510,1660 l -505,1660 h -247 -246 l -29,-92 c -16,-51 -247,-807 -513,-1680 -267,-872 -486,-1585 -488,-1583 -2,1 -207,756 -456,1676 l -452,1674 -358,3 -358,2 z"
         id="path48"
         inkscape:connector-curvature="0" />
      <path
         d="m 12890,16880 v -2210 h 1350 1350 v 305 305 h -1025 -1025 v 705 705 l 913,2 912,3 3,303 2,302 h -915 -915 v 600 600 h 1025 1025 v 295 295 h -1350 -1350 z"
         id="path50"
         inkscape:connector-curvature="0" />
      <path
         d="m 16320,16880 v -2210 h 998 c 1096,0 1095,0 1277,61 376,126 667,413 789,779 53,159 69,276 62,455 -8,221 -48,392 -136,581 -99,213 -251,368 -467,475 l -92,46 54,47 c 198,170 307,419 334,755 44,557 -293,1042 -827,1189 l -97,27 -947,3 -948,3 z m 1873,1605 c 175,-45 321,-185 385,-368 33,-95 42,-270 18,-370 -39,-166 -158,-322 -301,-394 -102,-52 -107,-53 -737,-53 h -588 v 600 600 h 583 c 484,0 592,-3 640,-15 z m 160,-1811 c 206,-53 376,-222 453,-449 36,-108 45,-282 20,-406 -33,-161 -132,-326 -249,-415 -77,-58 -185,-110 -256,-124 -33,-6 -306,-10 -702,-10 h -649 v 710 710 h 661 c 569,0 670,-2 722,-16 z"
         id="path52"
         inkscape:connector-curvature="0" />
      <path
         d="m 21720,16880 v -2210 h 943 c 767,0 961,3 1042,15 775,112 1371,799 1526,1762 30,185 37,548 15,743 -50,437 -172,794 -374,1096 -101,151 -194,258 -310,357 -290,247 -612,387 -997,432 -106,12 -285,15 -987,15 h -858 z m 1795,1605 c 316,-52 573,-205 758,-451 299,-398 405,-1080 266,-1709 -125,-563 -502,-947 -1012,-1030 -73,-12 -201,-15 -619,-15 h -528 v 1610 1610 h 523 c 412,0 541,-3 612,-15 z"
         id="path54"
         inkscape:connector-curvature="0" />
      <path
         d="m 25940,16880 v -2210 h 1350 1350 v 305 305 h -1025 -1025 v 705 705 l 913,2 912,3 3,303 2,302 h -915 -915 v 600 600 h 1025 1025 v 295 295 h -1350 -1350 z"
         id="path56"
         inkscape:connector-curvature="0" />
      <path
         d="m 29110,19087 c 0,-1 411,-995 914,-2207 l 914,-2205 364,-3 363,-2 916,2210 916,2210 h -352 -353 l -329,-792 c -181,-436 -516,-1241 -744,-1790 -228,-548 -416,-995 -418,-992 -2,2 -337,806 -745,1786 l -741,1783 -353,3 c -193,1 -352,1 -352,-1 z"
         id="path58"
         inkscape:connector-curvature="0" />
      <path
         d="m 33940,16880 v -2210 h 1350 1350 v 305 305 h -1025 -1025 v 705 705 l 913,2 912,3 3,303 2,302 h -915 -915 v 600 600 h 1025 1025 v 295 295 h -1350 -1350 z"
         id="path60"
         inkscape:connector-curvature="0" />
      <path
         d="m 37390,16880 v -2210 h 1350 1350 v 305 305 h -1020 -1020 v 1905 1905 h -330 -330 z"
         id="path62"
         inkscape:connector-curvature="0" />
      <path
         d="m 45360,16880 v -2210 h 325 325 v 950 950 l 23,5 c 12,3 310,6 662,8 695,4 684,3 864,63 378,126 672,416 795,784 47,140 66,257 66,405 0,258 -65,475 -204,685 -158,236 -391,416 -656,504 -199,66 -190,66 -1247,66 h -953 z m 1925,1615 c 289,-61 504,-337 505,-648 0,-258 -137,-479 -372,-598 -114,-58 -126,-59 -795,-59 h -613 v 660 660 h 603 c 492,0 615,-3 672,-15 z"
         id="path64"
         inkscape:connector-curvature="0" />
      <path
         d="m 49010,16880 v -2210 h 1350 1350 v 305 305 h -1025 -1025 v 705 705 l 913,2 912,3 3,303 2,302 h -915 -915 v 600 600 h 1025 1025 v 295 295 h -1350 -1350 z"
         id="path66"
         inkscape:connector-curvature="0" />
      <path
         d="m 52450,16880 v -2210 h 330 330 v 955 955 l 387,-2 387,-3 694,-952 694,-953 h 405 c 250,0 403,4 401,9 -1,6 -333,446 -735,980 -403,533 -733,972 -733,974 0,2 30,14 68,27 269,90 518,294 673,552 140,233 200,548 154,818 -83,498 -442,888 -942,1023 l -118,32 -997,3 -998,3 z m 1983,1602 c 195,-66 349,-222 417,-422 30,-89 38,-257 16,-359 -47,-224 -215,-408 -439,-485 -60,-20 -82,-21 -689,-24 l -628,-3 v 661 661 l 628,-3 c 624,-3 627,-3 695,-26 z"
         id="path68"
         inkscape:connector-curvature="0" />
    </g>
  </g>
</svg>
